<?xml version="1.0" encoding="UTF-8"?><svg id="Layer_1" xmlns="http://www.w3.org/2000/svg" viewBox="0 0 86.89 97.97"><defs><style>.cls-1{fill:#fff;}.cls-2{fill:#545454;}.cls-3{fill:#919191;}.cls-4{fill:#1e1e1e;}</style></defs><g><path class="cls-3" d="M86.6,70.19V27.78c0-2.35-1.25-4.52-3.29-5.69L46.59,.88c-2.03-1.17-4.54-1.17-6.58,0L3.29,22.08c-2.03,1.17-3.29,3.35-3.29,5.69v42.41c0,2.35,1.25,4.52,3.29,5.69l36.73,21.2c2.03,1.17,4.54,1.17,6.58,0l36.73-21.2c2.03-1.17,3.29-3.35,3.29-5.69Z"/><path class="cls-2" d="M.89,72.87l39.41,24.21c2.03,1.17,4.54,1.17,6.58,0l36.73-21.2c2.03-1.17,3.29-3.35,3.29-5.69V29.87c0-2.91-1-5-1-5"/><path class="cls-4" d="M86.89,70.87c0,2.35-1.54,3.83-3.58,5.01l-36.73,21.2c-2.03,1.17-4.54,1.17-6.58,0L3.29,75.88c-2.4-2.01-3.4-3.01-2.4-4.01l42-22.72,44,21.72Z"/></g><g><path class="cls-1" d="M10.79,68.11v-2l2.72-1.2c.66-.3,1.11-.79,1.36-1.47l10.85-27.79,3.15-6.37h3.01l13.47,34.24c.12,.28,.3,.57,.52,.87s.48,.49,.76,.6l2.83,1.12v2h-14.13v-2l4.48-1.55-9.55-24.45-1.04-3.6h-.45l-10.53,27.92,4.53,1.68v2H10.79Zm10.67-13.41l1.31-3.71h12.29l1.31,3.71h-14.91Z"/><path class="cls-1" d="M51.16,68.11v-1.95l4.03-1.07c.3-.09,.56-.24,.76-.44,.2-.2,.31-.49,.31-.87v-31.63c0-.39-.12-.69-.36-.91-.24-.21-.51-.38-.81-.51l-4.11-1.52v-1.89l10.59-.48V63.79c0,.37,.11,.66,.33,.87,.22,.21,.48,.35,.76,.44l3.89,1.07v1.95h-15.39Z"/></g></svg>